<?xml version="1.0" encoding="UTF-8"?>
<svg id="Calque_2" data-name="Calque 2" xmlns="http://www.w3.org/2000/svg" viewBox="0 0 436.65 456.32">
  <defs>
    <style>
      .cls-1 {
        fill: #4f1306;
      }

      .cls-2 {
        fill: #177f46;
      }

      .cls-3 {
        fill: #4f1206;
      }
    </style>
  </defs>
  <g id="Noir">
    <g>
      <path class="cls-3" d="M398.66,194.19c0-2.4.8-4,.8-6.4,0-9.6-5.6-16-5.6-25.6,0-24.58-10.67-35.51-20.48-50.97-.74,4.97-2.63,9.8-5.47,13.52-5.18,6.78-13.23,10.77-21.09,14.91-.73,1.29-1.45,2.59-2.21,3.86-.66.58-1.36,1.06-2.1,1.48-5.06,8.2-12.26,14.9-19.82,20.82-.99.78-2.08,1.43-3.22,1.98.92,2.8,1.45,4.8,1.6,5.6,2,8.4,2.4,18,6.4,26.8,1.6,3.2,2.4,8,2.4,12,0,8-3.2,20-3.2,29.6s-2.8,18-2.8,27.6c0,10.8-7.2,17.6-8.4,26.8-2.8,13.6-14,26.8-22.4,34-10.4,8.8-27.2,17.2-49.2,17.2-18.8,0-51.2-22.8-54.4-27.2-6-7.6-8-16.8-16-24.4-12.09-11.34-18.11-41.22-19.42-51.91-1.59-.87-2.57-1.99-2.47-3.43.08-1.17.69-2.12,1.65-2.91-2.03-12.91-6.16-25.96-6.16-37.74,0-9.6,3.6-19.2,3.6-28.8.8-9.2,3.2-18.4,9.6-27.2,11.6-16,3.6-33.2,44.4-51.6,6.8-2.4,13.6-6,20.8-6,6.8,0,14.4,3.2,21.6,3.2,14.82,0,22.79,11.21,32.43,19.89,4.51-6.62,11.75-11.14,17.6-16.44,6.41-5.8,11.98-12.45,19.17-17.25-.57-1.46-1.06-2.95-1.42-4.47-.65-2.73,3.62-4.32,8.54-5.23-4.76-3.59-9.63-6.52-16.32-7.29-15.6-1.6-26-10-41.2-11.6-9.6-2-18.8-3.2-28-4-14.4,0-28,5.2-42,6.4-13.6,0-26,12-40,14.8-13.2,4-21.6,20.8-32,28.4-10.4,10.4-20.8,20.8-25.2,34.8-2.8,8.8-11.6,16.4-11.6,26,0,14.8-9.2,23.6-9.2,40,0,2.4.4,5.6.4,9.2,0,6-.4,12.4-1.2,19.2,0,.8-.4,1.2-.4,2,0,21.6,4.8,58.8,14.8,70,9.6,11.2,9.6,28,20.4,39.2,6.8,7.2,12.4,16.4,21.6,20,9.6,4,14.8,13.6,24.8,16.4,14,2.8,24.4,12.4,40.4,12.4h1.6c12.4,0,21.6,4,34.8,4,17.2,0,34-7.6,52.4-9.6,13.2-2.4,31.2-10.8,38.8-19.6,12-16,27.2-23.2,38.8-43.2,4.4-8,13.6-14.8,16.8-23.6,3.2-9.2,4.8-18.8,8.8-28,6-13.6,10-23.6,10-46,0-8-2-13.2-2-21.6Z"/>
      <g>
        <path class="cls-1" d="M25.17,447.67c-4.72-10.28-5.17-19.26-3.35-25.77-.05.06-.09.12-.15.17-.57.74-1.34,1.3-2.11,1.84,0,.82-.04,1.63-.16,2.42-.08-.68-.17-1.35-.28-2.03-.09.09-.18.17-.26.27-.12.14-.26.25-.39.37.93,6.52.08,14.73-4.15,22.32-1.13,2.03-1.43,7.7,3.99,8.84,8.05,1.71,7.31-7.45,6.86-8.44ZM16.5,446.79c-.86,2.99-.74,5.2,1.13,7.76-3.3-1.01-3.79-5.84-1.13-7.76Z"/>
        <path d="M434.62,50.33L386.33,2.03c-2.71-2.71-7.6-2.71-10.31,0l-3.8,3.8,7.6,7.6-43.41,43.41-17.36-17.36-4.34,4.34c-2.71,2.71-2.71,7.6,0,10.31l5.97,5.97-188.82,188.28c-1.09,1.09-3.8,3.8-10.31,35.27l-27.67,27.67v25.5l-64.57,64.03L0,443.71l100.92-100.92h25.5l27.67-27.67c30.93-6.51,33.64-9.22,35.27-10.31l188.28-188.28,5.97,5.97c2.71,2.71,7.6,2.71,10.31,0l4.34-4.34-18.45-17.91,43.41-43.41,7.6,7.6,3.8-3.8c2.71-2.71,2.71-7.6,0-10.31ZM204.39,282.16l-48-48,161.93-161.93,48,48-161.93,161.93ZM374.93,95.36l-33.64-33.64,43.41-43.41,33.64,33.64-43.41,43.41Z"/>
        <path class="cls-2" d="M357.17,121.73c-.58.38-1.14.77-1.7,1.16l-.41.29-.43.28c-.29.18-.57.37-.85.55-.28.18-.56.38-.85.56l-.86.53-.85.53-.21.14c-.07.05-.14.09-.21.13l-.43.25c-2.27,1.35-4.56,2.6-6.9,3.67l-36.15-36.52c1.05-2.37,2.29-4.68,3.63-6.95l.25-.44c.05-.07.09-.15.12-.21l1.21-1.92c.18-.28.37-.56.56-.84.19-.28.37-.56.57-.84l.28-.43.3-.42c.39-.55.78-1.12,1.17-1.69l-.7-.71c-.56.42-1.11.84-1.65,1.26l-.41.32-.4.33c-.27.22-.53.45-.8.68-.26.22-.53.46-.8.68l-.77.72c-.51.48-1.04.95-1.52,1.47l-.74.76-.37.38c-.12.13-.24.26-.36.39l-.71.79-.36.4c-.12.14-.24.26-.35.41-.45.54-.9,1.1-1.36,1.65-.14.19-.29.39-.43.58-.28.38-.57.76-.85,1.14-.37.52-.74,1.06-1.11,1.6-1.23,1.85-2.35,3.81-3.35,5.83-.73,1.49-1.39,3.01-1.99,4.55-.44,1.15-.85,2.31-1.21,3.49l-.03.09c-.87,2.79-1.52,5.64-2,8.5-.49,2.86-.8,5.73-1,8.58-.29,4.23-.33,8.42-.26,12.54-.87.04-1.74.09-2.62.15-1.37.09-2.76.19-4.14.33l-1.04.1c-.35.03-.69.08-1.04.12l-1.04.12-1.04.13c-3.35.42-6.68.95-9.99,1.64-1.27.26-2.54.55-3.8.86-.87.21-1.75.45-2.62.69-2.68.76-5.33,1.63-7.92,2.66-.41.17-.83.34-1.24.51-1.09.46-2.15.94-3.22,1.46-1.05.51-2.1,1.04-3.12,1.6-2.33,1.26-4.59,2.66-6.78,4.17-.92.63-1.83,1.28-2.72,1.95-1.49,1.12-2.94,2.27-4.36,3.48-1.39,1.2-2.75,2.46-4.07,3.77-.71.71-1.4,1.43-2.09,2.18-.07.08-.13.15-.2.22-1.87,2.06-3.62,4.27-5.17,6.63-.52.79-1.02,1.58-1.49,2.4-.58.99-1.13,2.01-1.64,3.04-.38.76-.74,1.53-1.09,2.31-1.18,2.71-2.16,5.52-2.94,8.36-.08.27-.14.54-.22.82-.33,1.26-.62,2.53-.88,3.82-.27,1.33-.5,2.65-.69,3.99-.42,2.88-.69,5.77-.84,8.63-.2,4.02-.16,7.98-.02,11.89-.82-.05-1.63-.1-2.46-.13-.69-.03-1.38-.06-2.08-.07l-1.04-.02c-.35,0-.7,0-1.05,0h-1.05c-.35,0-.7.03-1.05.03l-1.05.03-1.06.05c-2.82.13-5.65.37-8.48.81-2.83.43-5.65,1.03-8.42,1.86l-.06.02-.98.31-.52.17c-.17.06-.35.11-.52.17l-1.02.37-.46.17-.05.02-.26.1c-.09.03-.16.07-.25.1l-1.01.41-.5.2c-.09.04-.16.07-.25.11l-.25.12-.99.45c-.33.16-.66.29-.98.47-2.02.99-3.97,2.11-5.82,3.35-.53.36-1.05.72-1.57,1.09-.38.29-.77.58-1.15.86-.18.15-.37.28-.56.43-.55.46-1.1.91-1.64,1.37-.13.12-.27.23-.4.35l-.39.36-.78.72c-.12.12-.26.23-.38.36l-.37.38-.75.75c-.5.5-.97,1.02-1.44,1.54l-.7.79c-.23.27-.45.54-.67.82-.22.27-.44.54-.66.82l-.33.41-.32.42c-.41.56-.83,1.13-1.22,1.7l.7.71c.58-.38,1.14-.77,1.7-1.16l.41-.29.42-.28c.29-.18.57-.37.85-.56.28-.18.56-.38.85-.56l.86-.53.85-.53.21-.14c.07-.05.14-.09.21-.13l.43-.25c2.27-1.35,4.56-2.6,6.9-3.67l36.15,36.52c-1.05,2.37-2.29,4.68-3.63,6.95l-.25.44c-.05.07-.09.15-.12.21l-1.21,1.92c-.18.28-.37.56-.56.84-.19.28-.37.56-.57.84l-.28.43-.3.42c-.39.55-.78,1.12-1.17,1.69l.7.71c.56-.42,1.11-.84,1.65-1.26l.41-.32.4-.33c.27-.22.53-.45.8-.68.26-.22.53-.46.8-.68l.77-.72c.51-.48,1.04-.95,1.52-1.47l.74-.76.37-.38c.12-.13.24-.26.36-.39l.71-.79.36-.4c.12-.14.24-.26.35-.41.45-.54.9-1.1,1.36-1.65.14-.19.29-.39.43-.58.28-.38.57-.76.85-1.14.37-.52.74-1.06,1.11-1.6,1.23-1.85,2.35-3.81,3.35-5.83.73-1.49,1.39-3.01,1.99-4.55.44-1.15.85-2.31,1.21-3.49l.03-.09c.87-2.79,1.52-5.64,2-8.5.49-2.86.8-5.73,1-8.58.29-4.23.33-8.42.26-12.54.87-.04,1.74-.09,2.62-.15,1.37-.09,2.76-.19,4.14-.33l1.04-.1c.35-.03.69-.08,1.04-.12l1.04-.12,1.04-.13c3.35-.42,6.68-.95,9.99-1.64,1.27-.26,2.54-.55,3.8-.86.87-.21,1.75-.45,2.62-.69,2.68-.76,5.33-1.63,7.92-2.66.41-.17.83-.34,1.24-.51,1.09-.46,2.15-.94,3.22-1.46,1.05-.51,2.1-1.04,3.12-1.6,2.33-1.26,4.59-2.66,6.78-4.17.92-.63,1.83-1.28,2.72-1.95,1.49-1.12,2.94-2.27,4.36-3.48,1.39-1.2,2.75-2.46,4.07-3.77.71-.71,1.4-1.43,2.09-2.18.07-.08.13-.15.2-.22,1.87-2.06,3.62-4.27,5.17-6.63.52-.79,1.02-1.58,1.49-2.4.58-.99,1.13-2.01,1.64-3.04.38-.76.74-1.53,1.09-2.31,1.18-2.71,2.16-5.52,2.94-8.36.08-.27.14-.54.22-.82.33-1.26.62-2.53.88-3.82.27-1.33.5-2.65.69-3.99.42-2.88.69-5.77.84-8.63.2-4.02.16-7.98.02-11.89.82.05,1.63.1,2.46.13.69.03,1.38.06,2.08.07l1.04.02c.35,0,.7,0,1.05,0h1.05c.35,0,.7-.03,1.05-.03l1.05-.03,1.06-.05c2.82-.13,5.65-.37,8.48-.81,2.83-.43,5.65-1.03,8.42-1.86l.06-.02.98-.31.52-.17c.17-.06.35-.11.52-.17l1.02-.37.46-.17.05-.02.26-.1c.09-.03.16-.07.25-.1l1.01-.41.5-.2c.09-.04.16-.07.25-.11l.25-.12.99-.45c.33-.16.66-.29.98-.47,2.02-.99,3.97-2.11,5.83-3.35.53-.36,1.05-.72,1.57-1.09.38-.29.77-.58,1.15-.86.18-.15.37-.28.56-.43.55-.46,1.1-.91,1.64-1.37.13-.12.27-.23.4-.35l.39-.36.78-.72c.12-.12.26-.23.38-.36l.37-.38.75-.75c.5-.5.97-1.02,1.44-1.54l.7-.79c.23-.27.45-.54.67-.82l.66-.82.33-.41.32-.42c.41-.56.83-1.13,1.22-1.7l-.7-.7ZM214.11,249.51c-.05.3-.1.59-.14.89-.41,2.53-.99,5.04-1.72,7.51-.41,1.37-.87,2.74-1.38,4.09l-34.25-34.59c1.32-.52,2.65-.99,3.99-1.42.3-.11.62-.18.91-.28l.91-.27.23-.07.23-.06.46-.12.92-.24.23-.06.23-.05.46-.11.93-.21c.62-.14,1.25-.25,1.87-.38.28-.05.56-.1.84-.15l25.28,25.51ZM192.93,223.42c3.42-.39,6.88-.56,10.4-.6h.98s.98,0,.98,0h1.96s3.97.05,3.97.05c1.05,0,2.1.02,3.15.02.25,4.08.49,8.1.56,12.06.06,3.5-.02,6.96-.33,10.38l-21.68-21.9ZM239.62,216.4c-.66-.02-1.33-.03-1.99-.08l-.99-.05c-.33-.02-.66-.05-.99-.07l-.99-.08-1-.09c-.34-.03-.66-.06-.99-.09l-1-.11c-.66-.07-1.33-.15-1.99-.22-.66-.07-1.33-.16-1.99-.23l-3.01-.36c-.15-4.29-.32-8.51-.3-12.64,0-1.29.03-2.57.07-3.85l17.68,17.86c-.84.02-1.67.02-2.51,0h0ZM259.01,213.06c-2.44,1.01-4.97,1.79-7.56,2.33-1.62.34-3.27.59-4.91.75l-21.83-22.05c.21-2.37.53-4.72.99-7.02.42-2.07.95-4.11,1.62-6.12l31.75,32.07s-.04.03-.06.04h0ZM266.02,209.4c-1.21.79-2.47,1.51-3.76,2.17l-33.7-34.04c.62-1.58,1.32-3.16,2.08-4.7.96-1.94,2.03-3.86,3.2-5.73l37.71,38.09c-1.73,1.53-3.58,2.96-5.53,4.21h0ZM277.71,198.82c-1.19,1.42-2.43,2.8-3.74,4.11l-38.25-38.63c1.07-1.52,2.19-3.01,3.39-4.46,1.19-1.42,2.43-2.8,3.74-4.11l38.25,38.63c-1.08,1.52-2.2,3-3.39,4.46ZM288.25,181.11c-.62,1.58-1.32,3.16-2.08,4.7-.96,1.94-2.03,3.86-3.2,5.73l-37.71-38.09c1.74-1.53,3.59-2.96,5.54-4.21,1.21-.79,2.47-1.51,3.76-2.17l33.69,34.04ZM291.1,171.55c-.42,2.07-.95,4.11-1.62,6.12l-31.75-32.07s.04-.02.06-.02c2.44-1.01,4.97-1.79,7.56-2.33,1.62-.34,3.27-.59,4.91-.75l21.83,22.05c-.2,2.36-.52,4.7-.99,7h0ZM274.68,142.24c.84-.02,1.67,0,2.51,0,.66.02,1.33.03,1.99.08l.99.05c.33.02.66.05.99.07l.99.08,1,.09c.34.03.66.06.99.09l1,.11c.66.07,1.33.15,1.99.22.66.07,1.33.16,1.99.23l3.01.36c.15,4.29.32,8.51.3,12.64,0,1.29-.03,2.57-.07,3.85l-17.68-17.87ZM313.48,135.82h-.98s-.98,0-.98,0h-1.96s-3.97-.05-3.97-.05c-1.05,0-2.1-.02-3.15-.02-.25-4.08-.49-8.1-.56-12.06-.06-3.5.02-6.96.33-10.38l21.68,21.9c-3.42.4-6.88.56-10.4.6h0ZM336.2,132.64c-.3.11-.62.18-.91.28l-.91.27-.23.07c-.08.02-.15.04-.23.06l-.46.12-.92.24-.23.06-.23.05-.46.11-.93.21c-.62.14-1.25.25-1.87.38-.28.05-.56.1-.84.15l-25.27-25.51c.05-.3.1-.59.14-.89.41-2.53.99-5.04,1.72-7.51.41-1.37.87-2.74,1.38-4.09l34.25,34.59c-1.33.51-2.65.99-4,1.42h0Z"/>
      </g>
    </g>
  </g>
</svg>